<?xml version="1.0" encoding="utf-8"?>
<svg width="640.000000pt" height="480.000000pt" viewBox="138 34 284 110" preserveAspectRatio="xMidYMid meet" xmlns="http://www.w3.org/2000/svg">
  <path d="M 149.626 53.89 C 149.626 59.39 149.926 63.89 150.426 63.89 C 150.826 63.89 151.226 63.29 151.226 62.49 C 151.226 57.99 160.126 52.19 168.526 51.19 L 173.726 50.49 L 166.626 49.29 C 162.726 48.69 157.426 47.19 154.826 45.99 C 152.126 44.89 149.926 43.89 149.826 43.89 C 149.826 43.89 149.726 48.39 149.626 53.89 Z" style="stroke: rgb(45, 60, 80); vector-effect: non-scaling-stroke; stroke-linejoin: round; stroke-linecap: round; fill: rgb(47, 62, 82);"/>
  <path d="M 165.026 63.99 C 162.526 65.39 162.626 70.49 165.126 71.89 C 168.226 73.49 170.026 73.09 171.826 70.39 C 173.326 68.09 173.326 67.69 171.826 65.39 C 170.126 62.79 167.826 62.29 165.026 63.99 Z" style="fill: rgb(47, 62, 82);"/>
  <path d="M 212.926 69.69 C 211.926 70.69 211.226 72.29 211.226 73.19 C 211.226 74.69 210.926 74.59 209.226 72.89 C 203.326 66.99 196.226 75.39 196.226 88.39 C 196.226 102.89 204.826 111.09 210.826 102.19 C 212.726 99.39 213.226 99.09 214.226 100.39 C 216.026 102.59 220.826 102.19 223.226 99.69 C 227.826 94.69 228.426 81.09 224.426 73.19 C 221.526 67.59 216.226 65.99 212.926 69.69 Z M 208.626 87.09 C 209.426 90.19 209.226 91.19 207.726 92.89 C 206.726 93.99 205.526 94.89 205.126 94.89 C 203.326 94.89 201.226 91.49 201.226 88.49 C 201.226 81.89 207.126 80.79 208.626 87.09 Z" style="fill: rgb(47, 62, 82);"/>
  <path d="M 146.226 79.99 C 146.226 81.59 152.226 83.69 159.026 84.49 C 163.426 84.89 165.226 84.79 165.226 83.99 C 165.226 83.39 164.426 82.89 163.426 82.89 C 162.426 82.89 159.126 81.99 155.926 80.89 C 149.626 78.69 146.226 78.39 146.226 79.99 Z" style="fill: rgb(47, 62, 82);"/>
  <path d="M 171.826 84.89 C 168.526 88.89 169.326 90.59 174.626 91.09 C 180.126 91.49 181.926 91.09 182.626 89.39 C 183.326 87.49 178.526 81.89 176.226 81.89 C 175.226 81.89 173.226 83.29 171.826 84.89 Z" style="fill: rgb(47, 62, 82);"/>
  <path d="M 153.926 89.39 C 146.226 90.79 143.526 92.39 147.426 93.39 C 149.826 93.99 161.726 90.69 163.726 88.79 C 164.926 87.69 162.626 87.79 153.926 89.39 Z" style="fill: rgb(47, 62, 82);"/>
  <path d="M 188.026 108.09 C 185.826 109.89 182.226 116.89 182.226 119.49 C 182.226 122.59 184.526 124.09 189.726 124.49 C 195.526 124.79 197.626 122.89 196.826 118.09 C 196.326 114.59 191.826 106.89 190.426 106.89 C 189.926 106.89 188.926 107.49 188.026 108.09 Z" style="fill: rgb(47, 62, 82);"/>
  <path d="M 297.004 73.644 C 297.004 76.671 296.457 79.527 295.364 82.214 C 294.271 84.901 292.801 87.404 290.954 89.724 C 289.107 92.051 286.964 94.137 284.524 95.984 C 282.091 97.831 279.487 99.397 276.714 100.684 C 273.947 101.977 271.107 102.974 268.194 103.674 C 265.281 104.374 262.454 104.724 259.714 104.724 C 259.434 104.724 259.097 104.737 258.704 104.764 C 258.311 104.791 257.891 104.777 257.444 104.724 C 256.997 104.664 256.577 104.594 256.184 104.514 C 255.791 104.427 255.511 104.244 255.344 103.964 C 254.617 105.417 253.847 106.857 253.034 108.284 C 252.221 109.717 251.311 111.077 250.304 112.364 C 248.064 115.384 245.264 117.887 241.904 119.874 C 238.544 121.867 234.934 122.864 231.074 122.864 C 230.794 122.864 230.554 122.724 230.354 122.444 C 230.161 122.164 230.064 121.884 230.064 121.604 C 230.064 120.931 230.371 120.537 230.984 120.424 C 232.104 120.144 233.171 119.907 234.184 119.714 C 235.191 119.514 236.254 119.191 237.374 118.744 C 239.947 117.624 242.201 116.044 244.134 114.004 C 246.067 111.957 247.761 109.674 249.214 107.154 C 250.667 104.634 251.927 102.017 252.994 99.304 C 254.054 96.584 255.004 93.994 255.844 91.534 C 256.577 89.294 257.264 87.027 257.904 84.734 C 258.551 82.434 259.207 80.151 259.874 77.884 C 260.547 75.617 261.277 73.364 262.064 71.124 C 262.844 68.884 263.767 66.701 264.834 64.574 C 263.267 65.527 261.671 66.381 260.044 67.134 C 258.424 67.894 256.831 68.747 255.264 69.694 C 254.144 70.367 253.007 71.111 251.854 71.924 C 250.707 72.737 249.631 73.617 248.624 74.564 C 247.617 75.517 246.707 76.541 245.894 77.634 C 245.081 78.727 244.424 79.917 243.924 81.204 C 243.697 81.764 243.544 82.311 243.464 82.844 C 243.377 83.377 243.277 83.951 243.164 84.564 C 243.051 84.844 242.884 85.054 242.664 85.194 C 242.437 85.334 242.214 85.404 241.994 85.404 C 241.374 85.404 240.994 85.221 240.854 84.854 C 240.714 84.494 240.644 84.091 240.644 83.644 C 240.644 81.737 241.007 79.931 241.734 78.224 C 242.467 76.517 243.407 74.921 244.554 73.434 C 245.701 71.954 247.014 70.597 248.494 69.364 C 249.981 68.131 251.481 67.037 252.994 66.084 C 255.514 64.464 258.174 62.884 260.974 61.344 C 263.774 59.804 266.574 58.557 269.374 57.604 L 269.534 57.604 C 269.874 57.604 270.224 57.744 270.584 58.024 C 270.951 58.304 271.134 58.641 271.134 59.034 C 271.134 59.087 271.034 59.394 270.834 59.954 C 270.641 60.514 270.417 61.131 270.164 61.804 C 269.911 62.477 269.661 63.121 269.414 63.734 C 269.161 64.347 269.007 64.741 268.954 64.914 C 269.961 63.961 271.077 63.051 272.304 62.184 C 273.537 61.317 274.827 60.547 276.174 59.874 C 277.514 59.201 278.897 58.667 280.324 58.274 C 281.757 57.881 283.201 57.684 284.654 57.684 C 286.894 57.684 288.797 58.161 290.364 59.114 C 291.931 60.067 293.204 61.301 294.184 62.814 C 295.164 64.321 295.877 66.027 296.324 67.934 C 296.777 69.841 297.004 71.744 297.004 73.644 M 292.714 73.724 C 292.714 72.497 292.587 71.197 292.334 69.824 C 292.087 68.451 291.654 67.217 291.034 66.124 C 290.421 65.037 289.597 64.127 288.564 63.394 C 287.524 62.667 286.247 62.304 284.734 62.304 C 283.841 62.304 282.947 62.417 282.054 62.644 C 281.154 62.864 280.284 63.144 279.444 63.484 C 277.037 64.437 274.797 65.737 272.724 67.384 C 270.657 69.037 268.811 70.874 267.184 72.894 C 266.904 73.227 266.611 73.604 266.304 74.024 C 265.997 74.444 265.731 74.851 265.504 75.244 C 265.224 75.857 264.931 76.737 264.624 77.884 C 264.317 79.031 264.051 79.971 263.824 80.704 C 263.211 82.717 262.567 84.744 261.894 86.784 C 261.221 88.831 260.547 90.861 259.874 92.874 C 259.314 94.441 258.741 95.994 258.154 97.534 C 257.567 99.074 256.937 100.601 256.264 102.114 C 256.544 102.001 256.824 101.961 257.104 101.994 C 257.384 102.021 257.664 102.034 257.944 102.034 C 261.644 102.034 265.521 101.321 269.574 99.894 C 273.634 98.461 277.387 96.487 280.834 93.974 C 284.274 91.454 287.114 88.471 289.354 85.024 C 291.594 81.584 292.714 77.817 292.714 73.724 Z M 323.43 87.084 C 323.43 88.484 323.097 89.871 322.43 91.244 C 321.757 92.611 320.9 93.911 319.86 95.144 C 318.827 96.377 317.693 97.497 316.46 98.504 C 315.234 99.511 314.087 100.377 313.02 101.104 C 311.394 102.224 309.7 103.261 307.94 104.214 C 306.174 105.167 304.257 105.644 302.19 105.644 C 301.737 105.644 301.247 105.587 300.72 105.474 C 300.187 105.361 299.92 104.997 299.92 104.384 C 299.92 103.597 300.284 103.121 301.01 102.954 C 301.177 102.901 301.374 102.874 301.6 102.874 C 301.82 102.874 302.044 102.844 302.27 102.784 C 302.884 102.677 303.487 102.484 304.08 102.204 C 304.667 101.924 305.267 101.614 305.88 101.274 C 306.834 100.661 308.037 99.794 309.49 98.674 C 310.95 97.554 312.38 96.321 313.78 94.974 C 315.18 93.634 316.367 92.264 317.34 90.864 C 318.32 89.464 318.81 88.147 318.81 86.914 C 318.81 86.127 318.39 85.734 317.55 85.734 C 317.217 85.734 316.884 85.791 316.55 85.904 C 316.21 86.017 315.874 86.131 315.54 86.244 C 312.854 87.137 310.39 88.494 308.15 90.314 C 305.91 92.134 303.977 94.247 302.35 96.654 C 300.73 99.061 299.457 101.637 298.53 104.384 C 297.61 107.124 297.15 109.867 297.15 112.614 C 297.15 113.507 297.22 114.531 297.36 115.684 C 297.5 116.831 297.78 117.907 298.2 118.914 C 298.62 119.921 299.193 120.774 299.92 121.474 C 300.647 122.174 301.597 122.524 302.77 122.524 C 303.223 122.524 303.644 122.454 304.03 122.314 C 304.424 122.174 304.817 121.991 305.21 121.764 C 306.723 120.924 308.124 119.791 309.41 118.364 C 310.697 116.937 311.844 115.497 312.85 114.044 C 313.13 113.704 313.397 113.341 313.65 112.954 C 313.904 112.561 314.17 112.167 314.45 111.774 C 314.617 111.494 314.897 111.354 315.29 111.354 C 315.624 111.354 315.943 111.467 316.25 111.694 C 316.564 111.914 316.72 112.221 316.72 112.614 C 316.72 112.727 316.664 112.894 316.55 113.114 C 315.877 114.347 315.037 115.707 314.03 117.194 C 313.024 118.674 311.904 120.057 310.67 121.344 C 309.437 122.637 308.107 123.717 306.68 124.584 C 305.254 125.451 303.757 125.884 302.19 125.884 C 300.45 125.884 299.007 125.394 297.86 124.414 C 296.714 123.434 295.804 122.231 295.13 120.804 C 294.457 119.377 293.98 117.837 293.7 116.184 C 293.42 114.531 293.28 113.034 293.28 111.694 C 293.28 107.434 294.177 103.361 295.97 99.474 C 297.764 95.581 300.17 92.151 303.19 89.184 C 304.09 88.284 305.127 87.374 306.3 86.454 C 307.473 85.527 308.72 84.687 310.04 83.934 C 311.354 83.181 312.697 82.564 314.07 82.084 C 315.443 81.611 316.774 81.374 318.06 81.374 C 319.68 81.374 320.98 81.921 321.96 83.014 C 322.94 84.101 323.43 85.457 323.43 87.084 Z M 350.047 67.094 C 350.047 67.207 350.033 67.291 350.007 67.344 C 349.98 67.404 349.967 67.461 349.967 67.514 C 348.233 71.381 346.44 75.201 344.587 78.974 C 342.74 82.754 341.09 86.661 339.637 90.694 C 340.25 90.694 340.837 90.681 341.397 90.654 C 341.957 90.627 342.547 90.614 343.167 90.614 C 343.447 90.614 343.767 90.597 344.127 90.564 C 344.493 90.537 344.83 90.567 345.137 90.654 C 345.443 90.734 345.71 90.874 345.937 91.074 C 346.157 91.267 346.267 91.587 346.267 92.034 C 346.267 92.594 346.043 92.961 345.597 93.134 C 345.203 93.241 344.687 93.364 344.047 93.504 C 343.4 93.644 342.727 93.771 342.027 93.884 C 341.327 93.997 340.657 94.097 340.017 94.184 C 339.37 94.264 338.823 94.334 338.377 94.394 C 337.87 95.847 337.393 97.454 336.947 99.214 C 336.5 100.981 336.11 102.801 335.777 104.674 C 335.437 106.554 335.157 108.404 334.937 110.224 C 334.71 112.044 334.597 113.707 334.597 115.214 C 334.597 115.607 334.61 116.211 334.637 117.024 C 334.663 117.837 334.747 118.634 334.887 119.414 C 335.027 120.201 335.253 120.901 335.567 121.514 C 335.873 122.134 336.307 122.444 336.867 122.444 C 337.647 122.444 338.54 122.051 339.547 121.264 C 340.56 120.477 341.557 119.567 342.537 118.534 C 343.517 117.501 344.44 116.464 345.307 115.424 C 346.173 114.391 346.887 113.594 347.447 113.034 C 347.667 112.807 347.917 112.694 348.197 112.694 C 348.537 112.694 348.86 112.834 349.167 113.114 C 349.473 113.394 349.627 113.704 349.627 114.044 C 349.627 114.211 349.543 114.407 349.377 114.634 C 348.763 115.527 347.967 116.631 346.987 117.944 C 346.007 119.264 344.943 120.524 343.797 121.724 C 342.643 122.931 341.437 123.954 340.177 124.794 C 338.917 125.634 337.7 126.054 336.527 126.054 C 335.24 126.054 334.203 125.604 333.417 124.704 C 332.637 123.811 332.037 122.734 331.617 121.474 C 331.197 120.214 330.917 118.897 330.777 117.524 C 330.637 116.157 330.567 114.997 330.567 114.044 C 330.567 112.697 330.663 111.184 330.857 109.504 C 331.057 107.824 331.297 106.117 331.577 104.384 C 331.857 102.651 332.19 100.957 332.577 99.304 C 332.97 97.651 333.337 96.154 333.677 94.814 C 333.223 94.814 332.787 94.827 332.367 94.854 C 331.947 94.881 331.513 94.894 331.067 94.894 C 329.893 94.894 328.69 94.867 327.457 94.814 C 326.223 94.754 325.02 94.627 323.847 94.434 C 322.673 94.234 321.527 93.897 320.407 93.424 C 319.287 92.951 318.277 92.294 317.377 91.454 C 317.157 91.281 317.047 91.027 317.047 90.694 C 317.047 90.581 317.213 90.287 317.547 89.814 C 317.88 89.334 318.103 89.094 318.217 89.094 C 320.29 89.094 322.333 89.321 324.347 89.774 C 326.367 90.221 328.41 90.501 330.477 90.614 C 331.15 90.667 331.837 90.694 332.537 90.694 C 333.237 90.694 333.95 90.694 334.677 90.694 L 334.937 90.694 C 335.55 88.787 336.303 86.714 337.197 84.474 C 338.097 82.241 339.107 80.031 340.227 77.844 C 341.347 75.657 342.537 73.544 343.797 71.504 C 345.057 69.457 346.357 67.681 347.697 66.174 C 348.03 65.947 348.31 65.834 348.537 65.834 C 348.87 65.834 349.207 65.961 349.547 66.214 C 349.88 66.467 350.047 66.761 350.047 67.094 Z M 351.295 120.254 C 351.295 120.534 351.129 120.897 350.795 121.344 L 350.705 121.514 C 350.819 121.741 350.875 121.964 350.875 122.184 C 350.482 122.464 350.215 122.761 350.075 123.074 C 349.935 123.381 349.559 123.534 348.945 123.534 C 348.385 123.534 347.865 123.324 347.385 122.904 C 346.912 122.484 346.675 121.994 346.675 121.434 C 346.675 120.481 346.759 119.697 346.925 119.084 C 347.092 118.464 347.765 118.154 348.945 118.154 C 349.445 118.154 349.962 118.351 350.495 118.744 C 351.029 119.137 351.295 119.641 351.295 120.254 Z M 383.066 59.534 C 383.066 59.874 382.926 60.267 382.646 60.714 L 382.566 60.964 C 382.673 61.297 382.726 61.551 382.726 61.724 C 382.34 62.004 382.06 62.297 381.886 62.604 C 381.72 62.911 381.33 63.064 380.716 63.064 C 380.21 63.064 379.706 62.854 379.206 62.434 C 378.7 62.014 378.446 61.497 378.446 60.884 C 378.446 59.871 378.543 59.044 378.736 58.404 C 378.936 57.757 379.68 57.434 380.966 57.434 C 381.473 57.434 381.95 57.657 382.396 58.104 C 382.843 58.557 383.066 59.034 383.066 59.534 M 382.476 113.114 C 382.476 113.394 382.393 113.621 382.226 113.794 C 381.16 115.081 380.136 116.354 379.156 117.614 C 378.176 118.874 377.143 120.034 376.056 121.094 C 374.963 122.161 373.743 123.071 372.396 123.824 C 371.056 124.584 369.516 125.131 367.776 125.464 C 366.27 124.791 365.236 123.907 364.676 122.814 C 364.116 121.727 363.836 120.397 363.836 118.824 L 363.836 115.804 C 363.836 114.351 363.99 112.841 364.296 111.274 C 364.603 109.701 364.923 108.187 365.256 106.734 C 365.763 104.554 366.34 102.204 366.986 99.684 C 367.626 97.164 368.38 94.657 369.246 92.164 C 370.12 89.671 371.116 87.264 372.236 84.944 C 373.356 82.617 374.613 80.587 376.006 78.854 C 376.286 78.574 376.566 78.434 376.846 78.434 C 377.186 78.434 377.523 78.561 377.856 78.814 C 378.196 79.061 378.366 79.381 378.366 79.774 L 378.366 79.944 C 377.413 82.911 376.333 86.031 375.126 89.304 C 373.926 92.584 372.78 95.917 371.686 99.304 C 370.593 102.691 369.67 106.064 368.916 109.424 C 368.156 112.784 367.776 116.031 367.776 119.164 C 367.776 119.497 367.793 119.974 367.826 120.594 C 367.853 121.207 368.033 121.597 368.366 121.764 C 369.6 121.544 370.903 120.901 372.276 119.834 C 373.65 118.774 374.936 117.654 376.136 116.474 C 377.343 115.301 378.393 114.237 379.286 113.284 C 380.18 112.331 380.796 111.854 381.136 111.854 C 381.416 111.854 381.71 111.994 382.016 112.274 C 382.323 112.554 382.476 112.834 382.476 113.114 Z M 410.078 67.094 C 410.078 67.207 410.065 67.291 410.038 67.344 C 410.012 67.404 409.998 67.461 409.998 67.514 C 408.265 71.381 406.472 75.201 404.618 78.974 C 402.772 82.754 401.122 86.661 399.668 90.694 C 400.282 90.694 400.868 90.681 401.428 90.654 C 401.988 90.627 402.578 90.614 403.198 90.614 C 403.478 90.614 403.798 90.597 404.158 90.564 C 404.525 90.537 404.862 90.567 405.168 90.654 C 405.475 90.734 405.742 90.874 405.968 91.074 C 406.188 91.267 406.298 91.587 406.298 92.034 C 406.298 92.594 406.075 92.961 405.628 93.134 C 405.235 93.241 404.718 93.364 404.078 93.504 C 403.432 93.644 402.758 93.771 402.058 93.884 C 401.358 93.997 400.688 94.097 400.048 94.184 C 399.402 94.264 398.855 94.334 398.408 94.394 C 397.902 95.847 397.425 97.454 396.978 99.214 C 396.532 100.981 396.142 102.801 395.808 104.674 C 395.468 106.554 395.188 108.404 394.968 110.224 C 394.742 112.044 394.628 113.707 394.628 115.214 C 394.628 115.607 394.642 116.211 394.668 117.024 C 394.695 117.837 394.778 118.634 394.918 119.414 C 395.058 120.201 395.285 120.901 395.598 121.514 C 395.905 122.134 396.338 122.444 396.898 122.444 C 397.678 122.444 398.572 122.051 399.578 121.264 C 400.592 120.477 401.588 119.567 402.568 118.534 C 403.548 117.501 404.472 116.464 405.338 115.424 C 406.205 114.391 406.918 113.594 407.478 113.034 C 407.698 112.807 407.948 112.694 408.228 112.694 C 408.568 112.694 408.892 112.834 409.198 113.114 C 409.505 113.394 409.658 113.704 409.658 114.044 C 409.658 114.211 409.575 114.407 409.408 114.634 C 408.795 115.527 407.998 116.631 407.018 117.944 C 406.038 119.264 404.975 120.524 403.828 121.724 C 402.675 122.931 401.468 123.954 400.208 124.794 C 398.948 125.634 397.732 126.054 396.558 126.054 C 395.272 126.054 394.235 125.604 393.448 124.704 C 392.668 123.811 392.068 122.734 391.648 121.474 C 391.228 120.214 390.948 118.897 390.808 117.524 C 390.668 116.157 390.598 114.997 390.598 114.044 C 390.598 112.697 390.695 111.184 390.888 109.504 C 391.088 107.824 391.328 106.117 391.608 104.384 C 391.888 102.651 392.222 100.957 392.608 99.304 C 393.002 97.651 393.368 96.154 393.708 94.814 C 393.255 94.814 392.818 94.827 392.398 94.854 C 391.978 94.881 391.545 94.894 391.098 94.894 C 389.925 94.894 388.722 94.867 387.488 94.814 C 386.255 94.754 385.052 94.627 383.878 94.434 C 382.705 94.234 381.558 93.897 380.438 93.424 C 379.318 92.951 378.308 92.294 377.408 91.454 C 377.188 91.281 377.078 91.027 377.078 90.694 C 377.078 90.581 377.245 90.287 377.578 89.814 C 377.912 89.334 378.135 89.094 378.248 89.094 C 380.322 89.094 382.365 89.321 384.378 89.774 C 386.398 90.221 388.442 90.501 390.508 90.614 C 391.182 90.667 391.868 90.694 392.568 90.694 C 393.268 90.694 393.982 90.694 394.708 90.694 L 394.968 90.694 C 395.582 88.787 396.335 86.714 397.228 84.474 C 398.128 82.241 399.138 80.031 400.258 77.844 C 401.378 75.657 402.568 73.544 403.828 71.504 C 405.088 69.457 406.388 67.681 407.728 66.174 C 408.062 65.947 408.342 65.834 408.568 65.834 C 408.902 65.834 409.238 65.961 409.578 66.214 C 409.912 66.467 410.078 66.761 410.078 67.094 Z" style="fill: rgb(23, 162, 139); white-space: pre;"/>
</svg>