<?xml version="1.0" encoding="utf-8"?>
<svg viewBox="215 96 99 95" xmlns="http://www.w3.org/2000/svg">
  <path d="M 227.637 111.338 C 227.637 116.838 227.937 121.338 228.437 121.338 C 228.837 121.338 229.237 120.738 229.237 119.938 C 229.237 115.438 238.137 109.638 246.537 108.638 L 251.737 107.938 L 244.637 106.738 C 240.737 106.138 235.437 104.638 232.837 103.438 C 230.137 102.338 227.937 101.338 227.837 101.338 C 227.837 101.338 227.737 105.838 227.637 111.338 Z" style="stroke: rgb(45, 60, 80); vector-effect: non-scaling-stroke; stroke-linejoin: round; stroke-linecap: round; fill: rgb(47, 62, 82);"/>
  <path d="M 243.037 121.438 C 240.537 122.838 240.637 127.938 243.137 129.338 C 246.237 130.938 248.037 130.538 249.837 127.838 C 251.337 125.538 251.337 125.138 249.837 122.838 C 248.137 120.238 245.837 119.738 243.037 121.438 Z" style="fill: rgb(47, 62, 82);"/>
  <path d="M 290.937 127.138 C 289.937 128.138 289.237 129.738 289.237 130.638 C 289.237 132.138 288.937 132.038 287.237 130.338 C 281.337 124.438 274.237 132.838 274.237 145.838 C 274.237 160.338 282.837 168.538 288.837 159.638 C 290.737 156.838 291.237 156.538 292.237 157.838 C 294.037 160.038 298.837 159.638 301.237 157.138 C 305.837 152.138 306.437 138.538 302.437 130.638 C 299.537 125.038 294.237 123.438 290.937 127.138 Z M 286.637 144.538 C 287.437 147.638 287.237 148.638 285.737 150.338 C 284.737 151.438 283.537 152.338 283.137 152.338 C 281.337 152.338 279.237 148.938 279.237 145.938 C 279.237 139.338 285.137 138.238 286.637 144.538 Z" style="fill: rgb(47, 62, 82);"/>
  <path d="M 224.237 137.438 C 224.237 139.038 230.237 141.138 237.037 141.938 C 241.437 142.338 243.237 142.238 243.237 141.438 C 243.237 140.838 242.437 140.338 241.437 140.338 C 240.437 140.338 237.137 139.438 233.937 138.338 C 227.637 136.138 224.237 135.838 224.237 137.438 Z" style="fill: rgb(47, 62, 82);"/>
  <path d="M 249.837 142.338 C 246.537 146.338 247.337 148.038 252.637 148.538 C 258.137 148.938 259.937 148.538 260.637 146.838 C 261.337 144.938 256.537 139.338 254.237 139.338 C 253.237 139.338 251.237 140.738 249.837 142.338 Z" style="fill: rgb(47, 62, 82);"/>
  <path d="M 231.937 146.838 C 224.237 148.238 221.537 149.838 225.437 150.838 C 227.837 151.438 239.737 148.138 241.737 146.238 C 242.937 145.138 240.637 145.238 231.937 146.838 Z" style="fill: rgb(47, 62, 82);"/>
  <path d="M 266.037 165.538 C 263.837 167.338 260.237 174.338 260.237 176.938 C 260.237 180.038 262.537 181.538 267.737 181.938 C 273.537 182.238 275.637 180.338 274.837 175.538 C 274.337 172.038 269.837 164.338 268.437 164.338 C 267.937 164.338 266.937 164.938 266.037 165.538 Z" style="fill: rgb(47, 62, 82);"/>
</svg>